<svg width="152" height="253" viewBox="0 0 152 253" fill="none" xmlns="http://www.w3.org/2000/svg">
<path d="M150.69 3.02532C150.164 2.11065 149.408 1.34989 148.497 0.819017C147.585 0.288145 146.55 0.00573761 145.495 0C143.927 0.00904417 142.427 0.63927 141.323 1.7526L11.7873 131.299C10.8114 132.274 10.1458 133.516 9.87434 134.868C9.60292 136.221 9.73781 137.624 10.262 138.9C10.7863 140.176 11.6764 141.268 12.8202 142.039C13.9641 142.811 15.3106 143.226 16.69 143.233H60.6474L0.855354 243.987C0.32307 244.887 0.0422668 245.914 0.0422668 246.96C0.0422668 248.006 0.32307 249.033 0.855354 249.933C1.37574 250.86 2.13269 251.632 3.04897 252.171C3.96525 252.71 5.00806 252.996 6.07099 253C7.63457 252.99 9.13211 252.368 10.2435 251.268L141.552 121.91C142.543 120.937 143.221 119.691 143.501 118.332C143.78 116.972 143.649 115.56 143.123 114.275C142.597 112.99 141.7 111.891 140.548 111.118C139.395 110.345 138.038 109.933 136.65 109.934H92.2541L150.669 9.03422C151.217 8.12846 151.508 7.091 151.511 6.03266C151.515 4.97432 151.231 3.93486 150.69 3.02532Z" fill="white"/>
</svg>
